<?xml version="1.0" encoding="UTF-8"?>
<svg version="1.1" xmlns="http://www.w3.org/2000/svg" width="212" height="202">
<path d="M0 0 C69.96 0 139.92 0 212 0 C212 66.66 212 133.32 212 202 C142.04 202 72.08 202 0 202 C0 135.34 0 68.68 0 0 Z " fill="#FEFEFE" transform="translate(0,0)"/>
<path d="M0 0 C2.55921608 2.55921608 2.2527187 3.50853718 2.25878906 7.06054688 C2.26509338 8.11504028 2.27139771 9.16953369 2.27789307 10.25598145 C2.2738446 11.39869507 2.26979614 12.54140869 2.265625 13.71875 C2.26753845 14.88756714 2.2694519 16.05638428 2.27142334 17.26062012 C2.27278626 19.73543513 2.26908241 22.21025726 2.26074219 24.68505859 C2.25004446 28.48421205 2.26063418 32.28289259 2.2734375 36.08203125 C2.27211592 38.48177188 2.26955357 40.88151222 2.265625 43.28125 C2.26967346 44.42396362 2.27372192 45.56667725 2.27789307 46.74401855 C2.27158875 47.79851196 2.26528442 48.85300537 2.25878906 49.93945312 C2.25640228 51.33605164 2.25640228 51.33605164 2.25396729 52.76086426 C2 55 2 55 0 57 C-5.34396183 56.78027763 -9.04168356 54.51359569 -13.4375 51.75 C-14.38206055 51.17572266 -14.38206055 51.17572266 -15.34570312 50.58984375 C-16.6158839 49.80919822 -17.8734686 49.00768975 -19.11767578 48.1862793 C-20.97312364 46.96177637 -20.97312364 46.96177637 -22.98779297 46.07348633 C-25.19844053 44.90589079 -26.47552331 43.99651182 -28 42 C-29.20787824 37.39192311 -29.28457194 32.93356029 -29.25 28.1875 C-29.24468262 26.91116699 -29.23936523 25.63483398 -29.23388672 24.31982422 C-28.78082529 13.92375499 -28.78082529 13.92375499 -25.4296875 10.58984375 C-22.01659861 8.56054858 -18.75600041 7.26858292 -15 6 C-13.13925624 4.87756743 -11.30221644 3.71418208 -9.5 2.5 C-6.16734814 0.35432004 -3.9917039 -0.47900447 0 0 Z " fill="#B92B34" transform="translate(160,88)"/>
<path d="M0 0 C1.20052002 0.42200684 1.20052002 0.42200684 2.42529297 0.85253906 C8.80670535 3.36744763 15.00042041 6.24297942 19 12 C21.44196751 21.35977844 20.7876784 32.56204893 19 42 C18.34 42.66 17.68 43.32 17 44 C12.07182585 43.74509444 8.56268349 41.84638812 4.5 39.25 C3.19097792 38.43739287 1.88101937 37.62629306 0.5703125 36.81640625 C-0.14737305 36.37055176 -0.86505859 35.92469727 -1.60449219 35.46533203 C-4.28243628 33.82723374 -6.98519419 32.23663036 -9.6953125 30.65234375 C-10.67564453 30.0790332 -11.65597656 29.50572266 -12.66601562 28.91503906 C-14.60880496 27.78078351 -16.55277961 26.64855528 -18.49804688 25.51855469 C-22.91741641 22.92608988 -27.12067883 20.38008364 -31 17 C-30.82104492 14.72631836 -30.82104492 14.72631836 -30 12 C-26.45959995 8.99655479 -22.33538454 6.86496442 -18.3125 4.5625 C-17.22259766 3.90056641 -16.13269531 3.23863281 -15.00976562 2.55664062 C-13.42131836 1.63334961 -13.42131836 1.63334961 -11.80078125 0.69140625 C-10.34925659 -0.15635376 -10.34925659 -0.15635376 -8.8684082 -1.02124023 C-5.14070675 -2.2932085 -3.55628147 -1.54982492 0 0 Z " fill="#C9384A" transform="translate(83,136)"/>
<path d="M0 0 C4.30431851 0.32124018 7.43217548 1.51501291 11.14453125 3.65234375 C12.06814453 4.18150391 12.99175781 4.71066406 13.94335938 5.25585938 C14.89017578 5.81080078 15.83699219 6.36574219 16.8125 6.9375 C17.77865234 7.48857422 18.74480469 8.03964844 19.74023438 8.60742188 C26.86364233 12.72728466 26.86364233 12.72728466 28 15 C28.43288566 19.40801286 28.51033693 23.82400542 28.625 28.25 C28.69589844 29.47847656 28.76679687 30.70695312 28.83984375 31.97265625 C29.02227066 40.83476328 29.02227066 40.83476328 26.22460938 44.02368164 C23.8875875 45.58945626 21.5422291 46.80055066 19 48 C17.65968473 48.84423072 16.33057702 49.70662706 15.015625 50.58984375 C13.76172962 51.37449787 12.50653693 52.15708301 11.25 52.9375 C10.61707031 53.34806641 9.98414063 53.75863281 9.33203125 54.18164062 C6.44285324 55.96259963 4.54781855 57.02294916 1.109375 56.87890625 C-1 56 -1 56 -2 54 C-2.10046864 52.34609108 -2.13834817 50.68819323 -2.14526367 49.03125 C-2.15164352 47.99677734 -2.15802338 46.96230469 -2.16459656 45.89648438 C-2.16570938 44.77564453 -2.1668222 43.65480469 -2.16796875 42.5 C-2.17296135 40.78006836 -2.17296135 40.78006836 -2.17805481 39.02539062 C-2.18312428 36.59766034 -2.18546313 34.16992307 -2.18530273 31.7421875 C-2.18749089 28.01550918 -2.20565125 24.28912596 -2.22460938 20.5625 C-2.22754287 18.20833435 -2.22952796 15.85416729 -2.23046875 13.5 C-2.23765427 12.37916016 -2.24483978 11.25832031 -2.25224304 10.10351562 C-2.24916641 9.06904297 -2.24608978 8.03457031 -2.24291992 6.96875 C-2.24434494 6.05544922 -2.24576996 5.14214844 -2.24723816 4.20117188 C-2 2 -2 2 0 0 Z " fill="#CA3A4C" transform="translate(48,88)"/>
<path d="M0 0 C2.63760541 1.18223652 5.01615957 2.67846877 7.4375 4.25 C8.70659553 5.04756874 9.97612507 5.84444731 11.24609375 6.640625 C11.86331299 7.03540039 12.48053223 7.43017578 13.11645508 7.83691406 C15.01423587 9.00879063 16.95100693 10.0670269 18.9140625 11.125 C22 13 22 13 22.9375 15.75 C22.958125 16.4925 22.97875 17.235 23 18 C19.58551075 20.8495578 16.14673363 23.19611802 12.28125 25.390625 C10.64385864 26.32648438 10.64385864 26.32648438 8.97338867 27.28125 C7.82717041 27.9309375 6.68095215 28.580625 5.5 29.25 C-2.68179597 33.90184308 -10.7845438 38.59602401 -18.58203125 43.875 C-21.53590036 45.24933652 -22.95240556 45.02118348 -26 44 C-28.65929244 41.34070756 -27.49352242 34.2163377 -27.56982422 30.43676758 C-27.60639082 29.0289536 -27.66087402 27.62148274 -27.73388672 26.21508789 C-28.32933477 14.56817884 -28.32933477 14.56817884 -25.16967773 10.84082031 C-22.8451403 9.28347066 -20.55795724 8.12536417 -18 7 C-16.91332031 6.30132812 -15.82664062 5.60265625 -14.70703125 4.8828125 C-13.75183594 4.30273438 -12.79664062 3.72265625 -11.8125 3.125 C-10.84957031 2.52945313 -9.88664062 1.93390625 -8.89453125 1.3203125 C-5.49046942 -0.23241746 -3.70328273 -0.55036192 0 0 Z " fill="#B92832" transform="translate(133,135)"/>
<path d="M0 0 C2.11096044 4.22192087 1.22688391 9.73192764 1.24023438 14.3762207 C1.2499472 16.42635563 1.28097445 18.47549074 1.3125 20.52539062 C1.32023437 22.45995117 1.32023437 22.45995117 1.328125 24.43359375 C1.3374707 25.62009521 1.34681641 26.80659668 1.35644531 28.02905273 C1 31 1 31 -0.25561523 32.73950195 C-3.80966917 35.30767277 -7.53807712 37.52237835 -11.3125 39.75 C-12.15490234 40.26949219 -12.99730469 40.78898437 -13.86523438 41.32421875 C-20.05243188 44.97171438 -20.05243188 44.97171438 -24.140625 45.09375 C-27.845526 43.67657475 -31.08541739 41.85741308 -34.4375 39.75 C-35.38206055 39.17572266 -35.38206055 39.17572266 -36.34570312 38.58984375 C-40.70497912 35.91065871 -44.86337453 33.01039583 -49 30 C-48.82421875 27.71362305 -48.82421875 27.71362305 -48 25 C-45.76953125 23.21411133 -45.76953125 23.21411133 -42.8125 21.58203125 C-41.72864014 20.97174072 -40.64478027 20.3614502 -39.52807617 19.73266602 C-38.35229194 19.09216778 -37.17626173 18.4521209 -36 17.8125 C-34.81069196 17.1512975 -33.62229871 16.48844696 -32.43481445 15.82397461 C-30.64999041 14.82570024 -28.86453345 13.82881806 -27.07527161 12.83851624 C-23.56250003 10.89199481 -20.09771322 8.8859919 -16.66796875 6.796875 C-15.89904297 6.32918701 -15.13011719 5.86149902 -14.33789062 5.37963867 C-12.94277337 4.52511351 -11.55185229 3.6636848 -10.16601562 2.79418945 C-6.64072082 0.65980541 -4.15487448 -0.51441303 0 0 Z " fill="#DB5065" transform="translate(101,53)"/>
<path d="M0 0 C5.02152698 0.38650727 8.52846267 1.51110453 12.84375 4.0625 C13.91890869 4.69051514 14.99406738 5.31853027 16.10180664 5.96557617 C17.22321045 6.63693604 18.34461426 7.3082959 19.5 8 C20.66285078 8.68741625 21.82618366 9.37401762 22.98999023 10.05981445 C25.28190635 11.4124848 27.56928923 12.77200352 29.85498047 14.13525391 C32.55653707 15.7370618 35.27177285 17.30667251 38.00390625 18.85546875 C39.35685406 19.63266763 40.70972689 20.40999707 42.0625 21.1875 C43.20847656 21.84105469 44.35445312 22.49460937 45.53515625 23.16796875 C48 25 48 25 49.12109375 26.98828125 C48.93758638 30.03687148 47.21587448 30.99057935 45 33 C41.8170933 35.27901785 38.4687016 37.27877673 35.125 39.3125 C34.23941406 39.87517578 33.35382813 40.43785156 32.44140625 41.01757812 C26.00687954 44.93487196 26.00687954 44.93487196 21.98046875 45.1953125 C17.46852843 43.38580563 13.35851904 41.04742959 9.1875 38.5625 C8.31673828 38.05912109 7.44597656 37.55574219 6.54882812 37.03710938 C0.13697945 33.27395891 0.13697945 33.27395891 -1 31 C-1.09771688 28.76080846 -1.13077374 26.5186655 -1.1328125 24.27734375 C-1.13376923 23.61666397 -1.13472595 22.95598419 -1.13571167 22.27528381 C-1.13639216 20.87907821 -1.134547 19.48286944 -1.13037109 18.08666992 C-1.12501243 15.94247386 -1.13032479 13.79848647 -1.13671875 11.65429688 C-1.13605811 10.2994787 -1.13477725 8.94466066 -1.1328125 7.58984375 C-1.13168457 6.35097412 -1.13055664 5.11210449 -1.12939453 3.83569336 C-1 1 -1 1 0 0 Z " fill="#DB5065" transform="translate(107,53)"/>
<path d="M0 0 C2.42390039 2.42390039 1.17322421 8.21922115 1.18554688 11.60546875 C1.18542603 12.65613525 1.18542603 12.65613525 1.18530273 13.72802734 C1.18748389 15.85925415 1.20562102 17.989959 1.22460938 20.12109375 C1.22754433 21.47395656 1.22952844 22.82682183 1.23046875 24.1796875 C1.23457764 25.41444824 1.23868652 26.64920898 1.24291992 27.92138672 C1 31 1 31 -1 34 C-4.99647812 33.41392179 -7.81124262 32.16462657 -11.265625 30.09375 C-12.23757812 29.51496094 -13.20953125 28.93617187 -14.2109375 28.33984375 C-15.21382812 27.73269531 -16.21671875 27.12554687 -17.25 26.5 C-18.26835937 25.89285156 -19.28671875 25.28570312 -20.3359375 24.66015625 C-27.82075374 20.17924626 -27.82075374 20.17924626 -29 19 C-29.3203125 16.64453125 -29.3203125 16.64453125 -29 14 C-26.14304415 11.07063282 -22.47941961 9.1275156 -19 7 C-18.12529053 6.45013428 -18.12529053 6.45013428 -17.23291016 5.88916016 C-15.39599196 4.7391957 -13.54541194 3.61568079 -11.6875 2.5 C-11.10145996 2.13737061 -10.51541992 1.77474121 -9.91162109 1.40112305 C-6.23970072 -0.73219254 -4.05282127 -1.47643762 0 0 Z " fill="#EB6E84" transform="translate(161,41)"/>
</svg>
